<svg width="15" height="15" viewBox="0 0 15 15" fill="none" xmlns="http://www.w3.org/2000/svg">
<g id="AppleHealth-Icon">
<path id="AppleHealth-Icon_2" d="M10.9967 1C9.49402 1 8.27905 1.51109 7.52584 2.60414C7.5172 2.61668 7.50865 2.62925 7.50019 2.64185C7.49152 2.6295 7.48289 2.6168 7.47416 2.60414C6.72142 1.51176 5.50761 1 4.27227 1C3.06314 1 1.99536 1.46478 1.22974 2.23222C0.463444 3.00034 0 4.07149 0 5.28251C0 7.03323 0.815104 8.79792 2.11321 10.3315C3.49406 11.9628 5.42177 13.3327 7.50035 14.1464C9.20721 13.5658 11.2386 12.0973 12.7568 10.3037C14.0699 8.75251 15 6.95769 15 5.28251C15 4.08712 14.5485 3.02802 13.8321 2.26203C13.098 1.47714 12.0858 1 10.9967 1Z" fill="url(#paint0_linear_22_12518)"/>
</g>
<defs>
<linearGradient id="paint0_linear_22_12518" x1="0" y1="1" x2="0" y2="14.1464" gradientUnits="userSpaceOnUse">
<stop stop-color="#FF61AD"/>
<stop offset="1" stop-color="#FF2719"/>
</linearGradient>
</defs>
</svg>
