<svg width="15" height="15" viewBox="0 0 15 15" fill="none" xmlns="http://www.w3.org/2000/svg">
<path fill-rule="evenodd" clip-rule="evenodd" d="M0 7.49999C0 3.35788 3.35789 0 7.5 0C11.6421 0 15 3.35788 15 7.49999C15 11.6421 11.6421 15 7.5 15C3.35789 15 0 11.6421 0 7.49999ZM7.1516 2.31841C7.06646 2.24885 6.95672 2.21684 6.84754 2.22973C6.64364 2.25543 6.49122 2.42963 6.49281 2.63513V6.68286L5.32727 5.75803C5.24213 5.68846 5.1324 5.65646 5.02322 5.66934C4.85662 5.68576 4.71725 5.80287 4.67237 5.96414C4.62749 6.12542 4.68634 6.29769 4.82051 6.3978L6.20777 7.49999L4.82051 8.59586C4.70549 8.68614 4.64757 8.83107 4.66867 8.97576C4.68977 9.12045 4.78668 9.24279 4.9227 9.29646C5.05871 9.35013 5.21305 9.32693 5.32727 9.23563L6.49281 8.3108V12.3649C6.49275 12.5208 6.58207 12.6629 6.72258 12.7305C6.86308 12.798 7.02988 12.779 7.1516 12.6816L10.1921 10.2492C10.2908 10.1723 10.3485 10.0543 10.3485 9.92927C10.3485 9.80424 10.2908 9.6862 10.1921 9.60938L7.52534 7.49999L10.1921 5.38428C10.2884 5.30734 10.3444 5.1908 10.3444 5.06756C10.3444 4.94433 10.2884 4.82778 10.1921 4.75084L7.1516 2.31841ZM7.30362 3.47762V6.63218L9.28632 5.06123L7.30362 3.47762ZM7.30362 11.5224V8.36148L9.28632 9.93244L7.30362 11.5224Z" fill="#0078D3"/>
</svg>
