<svg width="16" height="15" viewBox="0 0 16 15" fill="none" xmlns="http://www.w3.org/2000/svg">
<g id="Google-fit-icon">
<g id="Group 7">
<path id="Path" d="M1.9125 8.1125L2.65625 8.85625L4.2625 7.25625L3.525 6.5125L3.1875 6.175C2.91875 5.90625 2.775 5.55625 2.775 5.175C2.775 4.84375 2.8875 4.54375 3.08125 4.30625C3.34375 3.975 3.74375 3.7625 4.19375 3.7625C4.575 3.7625 4.925 3.9125 5.2 4.18125L5.53125 4.5L6.275 5.25L7.8875 3.65L7.1375 2.90625L6.8 2.58125C6.13125 1.9125 5.2125 1.5 4.19375 1.5C2.15 1.5 0.5 3.15 0.5 5.18125C0.5 5.6875 0.6 6.16875 0.7875 6.6125C0.975 7.05625 1.24375 7.45 1.58125 7.78125L1.9125 8.1125Z" fill="#EA4335"/>
<path id="Path_2" d="M5.59375 9.1375L7.8875 6.85625L6.275 5.25L4.2625 7.25625L2.65625 8.85625L3.51875 9.725L4.2625 10.4625L5.0375 9.6875" fill="#FBBC04"/>
<path id="Path_3" d="M9.4875 12.475L13.1125 8.85623L11.5 7.25623L7.88125 10.8687L5.86875 8.86248L4.2625 10.4625L6.275 12.475L6.26875 12.4812L7.88125 14L9.49375 12.475H9.4875Z" fill="#34A853"/>
<path id="Path_4" d="M14.1813 7.78128C14.9313 7.03128 15.3625 5.88128 15.2438 4.71878C15.0688 2.95628 13.6063 1.63128 11.8313 1.51253C10.7125 1.43753 9.6875 1.85628 8.9625 2.58128L6.275 5.25003L7.88125 6.85628L10.5688 4.18128C10.8938 3.86253 11.3438 3.71253 11.8063 3.78753C12.4063 3.88128 12.8938 4.37503 12.975 4.97503C13.0375 5.42503 12.8875 5.86253 12.5688 6.18128L11.5 7.25628L13.1125 8.85628L14.1813 7.78128Z" fill="#4285F4"/>
</g>
</g>
</svg>
